<?xml version="1.0" encoding="utf-8"?>
<!-- Generator: Adobe Illustrator 24.3.0, SVG Export Plug-In . SVG Version: 6.00 Build 0)  -->
<svg version="1.1" id="Layer_1" xmlns="http://www.w3.org/2000/svg" xmlns:xlink="http://www.w3.org/1999/xlink" x="0px" y="0px"
	 viewBox="0 0 366 500" style="enable-background:new 0 0 366 500;" xml:space="preserve">
<style type="text/css">
	.st0{fill-rule:evenodd;clip-rule:evenodd;fill:#0049E7;}
	.st1{fill-rule:evenodd;clip-rule:evenodd;fill:#021B8D;}
	.st2{fill-rule:evenodd;clip-rule:evenodd;fill:#3BDBBF;}
</style>
<g>
	<path class="st0" d="M17.15,310.43V135.55C17.15,69.8,70.95,16,136.7,16c65.75,0,119.55,53.8,119.55,119.55v34.48
		c-21.71-10.23-45.95-15.96-71.54-15.96C95.85,154.06,23.11,223.08,17.15,310.43 M17.15,333.81v-0.18l0.02,0.31L17.15,333.81z"/>
	<path class="st1" d="M169.14,145.75c31.71,0,61.37,8.79,86.67,24.07c-21.59-10.11-45.69-15.76-71.1-15.76
		c-88.87,0-161.6,69.01-167.56,156.37v-68.28C44.02,185.18,101.97,145.75,169.14,145.75 M17.15,333.81v-0.18l0.02,0.31L17.15,333.81
		z"/>
	<path class="st2" d="M184.71,240.95c44.77,0,81.08,36.3,81.08,81.08s-36.31,81.08-81.08,81.08c-44.78,0-81.08-36.3-81.08-81.08
		S139.93,240.95,184.71,240.95 M184.71,154.06c92.77,0,167.97,75.2,167.97,167.97c0,92.77-75.2,167.97-167.97,167.97
		c-92.77,0-167.97-75.2-167.97-167.97C16.75,229.26,91.95,154.06,184.71,154.06z"/>
</g>
</svg>
