<?xml version="1.0" encoding="utf-8"?>
<!-- Generator: Adobe Illustrator 24.3.0, SVG Export Plug-In . SVG Version: 6.00 Build 0)  -->
<svg version="1.1" id="Layer_1" xmlns="http://www.w3.org/2000/svg" xmlns:xlink="http://www.w3.org/1999/xlink" x="0px" y="0px"
	 viewBox="0 0 500 125" style="enable-background:new 0 0 500 125;" xml:space="preserve">
<style type="text/css">
	.st0{fill:#FFFFFF;}
	.st1{fill-rule:evenodd;clip-rule:evenodd;fill:#BB2649;}
	.st2{fill-rule:evenodd;clip-rule:evenodd;fill:#841432;}
	.st3{fill-rule:evenodd;clip-rule:evenodd;fill:#FFFFFF;}
</style>
<g>
	<path class="st0" d="M361.5-209.5c0,2.1-6.6,11-19.9,26.7c-11,13-19.7,19.5-26.1,19.5c-4,0-7.5-1.6-10.2-4.9s-4.2-7.2-4.2-11.8
		c0-3.6,1.8-8.6,5.4-15l-2.8,3.7c-8.4,10.8-14.6,18.1-18.5,21.7c-4.3,4.1-8.4,6.2-12.2,6.2c-4,0-7.4-1.6-10.2-4.7s-4.1-7-4.1-11.6
		c0-5.3,2.1-11.4,6.2-18.3l25-42c3.1,0.6,5.5,1,7.3,1s4.9-0.3,9.3-1l-32.7,53.9c-3.3,5.5-5,10.4-5,14.6c0,4.1,1.7,6.2,5.2,6.2
		c9.2,0,24.1-17.3,44.5-51.8l13.5-22.8c2.8,0.6,5.2,1,7.1,1c2.3,0,5.5-0.3,9.8-1l-22,35.9c-10.4,17-15.7,28-15.7,32.8
		c0,3.9,1.9,5.9,5.6,5.9c7.3,0,19.3-11.6,35.8-34.7l4.3-5.9l2.5-3c0.5-0.9,0.9-1.4,1.4-1.4C361.2-210.3,361.5-210.1,361.5-209.5z"/>
	<path class="st0" d="M439.8-209.5c0,0.7-2.8,4.1-8.3,10.1c-7,7.7-13.5,11.6-19.7,11.6c-7,0-10.5-4-10.5-12.1c0-2.6,0.5-5.8,1.6-9.8
		c-5.8,5-10.5,10-14.1,15s-9.9,15-18.8,30.2c-4.9-0.4-7.7-0.6-8.5-0.6c-0.4,0-3.2,0.2-8.4,0.6l22.5-36.6
		c11.3-18.3,16.9-29.7,16.9-34.1c0-2.6-1.1-3.9-3.2-3.9c-5.1,0-14.5,9.9-28,29.6c-0.8,1.3-1.6,1.9-2.2,1.9c-0.4-0.1-0.5-0.4-0.5-0.8
		c0.1-0.5,0.3-0.8,0.5-1.1l2.5-3.4c14.1-18.8,23.7-28.2,28.8-28.2c7.3,0,11,4.7,11,14.1c0,7.1-3.8,16.4-11.3,28
		c4.8-5.5,9.3-10,13.6-13.5c3.5-8.1,7.8-15,13-20.5c5.2-5.5,9.8-8.2,13.9-8.2c2.8,0,4.3,1.2,4.3,3.7c0,4.4-6.4,10.7-19.1,18.8
		c-2,1.3-5,3.2-9.1,5.6l-1.6,1.4c-1.3,4.2-1.9,7.7-1.9,10.4c0,7.7,2.9,11.5,8.7,11.5c7.2,0,15-5.9,23.4-17.8c1.8-2,3-3,3.4-3
		C439.5-210.3,439.8-210.1,439.8-209.5z"/>
	<path class="st0" d="M486.7-209.5c-0.1,0.3-0.5,1-1.4,2.2l-5.9,8.1c-17.2,23.9-30.4,35.9-39.5,35.9c-4.3,0-7.9-1.5-10.8-4.6
		c-2.9-3.1-4.3-6.9-4.3-11.5c0-5.3,3.2-13.4,9.5-24.2l21.4-36.4c2.8,0.6,5.1,1,6.7,1c2.5,0,6-0.3,10.4-1l-31.2,51.2
		c-4.5,7.4-6.7,13.1-6.7,17.2c0,4.1,2.2,6.2,6.5,6.2c8.2,0,22.5-14.5,43.1-43.6c0.5-0.9,0.9-1.4,1.4-1.4
		C486.4-210.3,486.7-210.1,486.7-209.5z M484.7-266.3c0,3.2-1.4,6.2-4,9c-2.7,2.8-5.7,4.2-8.9,4.2c-4.1,0-6.2-2.1-6.2-6.2
		c0-3,1.4-5.9,4.3-8.7s5.8-4.2,8.9-4.2C482.7-272.2,484.7-270.2,484.7-266.3z"/>
	<path class="st0" d="M597-209.5c0,1.9-6.7,10.8-19.9,26.7c-10.9,13-19.5,19.5-25.7,19.5c-4.1,0-7.6-1.6-10.4-4.8
		c-2.8-3.2-4.2-7.1-4.2-11.8c0-4.1,0.8-7.9,2.5-11.5c1.7-3.5,6.1-10.5,13.3-20.9c7.4-11,11.1-18,11.1-21c0-3.8-2-5.6-5.9-5.6
		c-13.4,0-34,24.8-61.8,74.5c-4.5-0.4-7.2-0.6-8.1-0.6c-3.2,0-6.2,0.2-9.1,0.6l21.4-33.9c12.2-19.4,18.3-31.6,18.3-36.4
		c0-2.8-1.2-4.1-3.4-4.1c-4.7,0-13.9,9.9-27.7,29.6c-0.8,1.2-1.5,1.8-1.9,1.9c-0.5,0-0.7-0.3-0.8-0.8c0.1-0.5,0.3-0.8,0.5-1.1
		l2.6-3.4c14-18.8,23.5-28.2,28.4-28.2c3.1,0,5.8,1.4,8,4.3c2.2,2.8,3.3,6.2,3.3,10.2c0,5.9-3.4,14-10.3,24.5
		c10.8-14.9,19.1-25.1,24.9-30.6c5.8-5.5,11.2-8.2,16.1-8.2c4,0,7.4,1.6,10.2,4.9s4.1,7.4,4.1,12.2c0,6.1-4.2,15.5-12.6,28.2
		c-8.6,12.9-12.9,21.2-12.9,24.7c0,3.8,1.9,5.6,5.6,5.6c8.2,0,22.2-14.5,42.2-43.6c0.5-0.9,0.9-1.4,1.4-1.4
		C596.7-210.3,597-210.1,597-209.5z"/>
</g>
<path class="st1" d="M51.1,76.9v-44c0-16.5,13.5-30.1,30.1-30.1s30.1,13.5,30.1,30.1v8.7c-5.5-2.6-11.6-4-18-4
	C70.9,37.6,52.6,55,51.1,76.9 M51.1,82.8L51.1,82.8L51.1,82.8L51.1,82.8z"/>
<path class="st2" d="M89.4,35.5c8,0,15.4,2.2,21.8,6.1c-5.4-2.5-11.5-4-17.9-4c-22.4,0-40.7,17.4-42.2,39.3V59.8
	C57.9,45.4,72.5,35.5,89.4,35.5 M51.1,82.8L51.1,82.8L51.1,82.8L51.1,82.8z"/>
<path class="st3" d="M93.3,59.5c11.3,0,20.4,9.1,20.4,20.4s-9.1,20.4-20.4,20.4c-11.3,0-20.4-9.1-20.4-20.4S82,59.5,93.3,59.5
	 M93.3,37.6c23.3,0,42.3,18.9,42.3,42.3s-18.9,42.3-42.3,42.3S51,103.2,51,79.9S69.9,37.6,93.3,37.6z"/>
<path class="st0" d="M151,40.9c6,0.1,10.2,0.1,12.7,0.1c3.1,0,7.2,0,12.3-0.1l-1.7,24.5c-0.3,4.6-0.6,8.9-0.8,13
	c-0.2,4-0.3,6.8-0.3,8.4c0,2.9,0.2,5.4,0.6,7.3s1.2,3.6,2.3,5c1.1,1.4,2.7,2.4,4.6,3.1c2,0.7,4,1,6.2,1c1.8,0,3.6-0.2,5.2-0.8
	c1.3-0.4,2.4-1,3.4-1.7c0.9-0.7,1.6-1.5,2.3-2.4c0.8-1.1,1.5-2.5,2.1-4.1c0.6-1.6,1.1-3.6,1.4-6.1c0.4-2.5,0.8-8.2,1.4-17.2
	c0.5-7.6,0.9-14.6,1.1-20.9c0.2-6.1,0.4-9.2,0.6-9.2c5.8,0,10.4,0,13.7,0H230l-2.8,41c0,0.8-0.1,1.4-0.1,1.9
	c-0.1,8-0.6,13.7-1.5,16.9c-0.8,3.3-2.2,6.2-4.1,8.6c-1.9,2.4-4.7,4.6-8.4,6.6c-3.7,1.9-7.9,3.3-12.6,4.1s-9.4,1.2-14.3,1.2
	c-4.3,0-8.5-0.3-12.5-0.9c-3.7-0.6-7-1.5-10-2.7c-3-1.2-5.5-2.6-7.7-4.1c-2-1.5-3.5-2.9-4.6-4.5c-1.1-1.5-1.9-3.3-2.5-5.4
	c-0.7-2.4-1-4.9-1-7.7c0-0.9,0-2.3,0.1-4.2c0.1-1.9,0.2-4.6,0.5-8.1l0.8-9.2c0.2-2.4,0.4-6,0.6-10.7L151,40.9z"/>
<path class="st0" d="M239.2,119.7c0.7-6.8,1.3-12.9,1.7-18.3c0.4-5.4,0.8-11.7,1.1-18.9c0.3-7.2,0.5-14.7,0.7-22.7
	c0.1-7.9,0.2-14.3,0.2-19c4.8,0.1,8.7,0.2,11.6,0.2c3.1,0,6.8-0.1,11.3-0.3s8.7-0.3,12.9-0.3c4.9,0,9.3,0.2,13.1,0.6
	c2.9,0.3,5.5,0.8,7.9,1.7c2.4,0.8,4.4,1.9,6,3.1c1.6,1.2,3,2.6,4,4.1c1.1,1.5,1.9,3.3,2.5,5.3s0.9,4.2,0.9,6.5c0,2.6-0.3,5-1,7.2
	c-0.7,2.2-1.7,4.4-3.1,6.3c-1.4,2-3.2,3.7-5.3,5.1s-5.1,2.9-9,4.4l3,7.3c0.9,2,1.8,4.1,2.7,6.2l7.7,16.9c0.4,0.7,1,2.2,1.9,4.3
	c-6.3-0.1-10.6-0.1-12.8-0.1c-2.8,0-7.3,0-13.6,0.1c-0.6-2-1.7-5.7-3.4-11.1c-0.6-2.3-1.2-4-1.7-5.2c-0.9-2.7-2.3-6.6-4.1-11.5
	l-6-16.3c2.1,0.4,4.1,0.6,6.1,0.6c2.8,0,5.4-0.4,7.6-1.3c2.3-0.8,4-2.2,5.2-3.9s1.8-3.6,1.8-5.6c0-1.7-0.4-3.1-1.3-4.4
	c-0.9-1.2-2.3-2.2-4.2-2.8s-4.8-0.9-8.8-0.9c-1.4,0-2.7,0-4.2,0.1s-3.1,0.1-5,0.1c-0.5,7.9-0.9,17.5-1.3,28.8s-0.6,22.5-0.7,33.4
	c-6.4-0.1-10.6-0.1-12.5-0.1C249.1,119.6,245.1,119.6,239.2,119.7z"/>
<path class="st0" d="M322.4,119.7c2.2-30.9,3.3-54.7,3.3-71.3l-0.1-7.4c6.7,0.1,11.2,0.1,13.5,0.1c1,0,5.2,0,12.4-0.1
	c-0.7,8.7-1.3,16.9-1.7,24.6c-0.5,10.8-0.9,20.8-1.2,30.2s-0.4,17.4-0.4,24l-11.8-0.1C334.3,119.6,329.5,119.6,322.4,119.7z"/>
<path class="st0" d="M362.6,119.7l1.1-12.1l2.2-41.1l0.6-16.6v-9c6,0.1,11.2,0.1,15.8,0.1c3.3,0,7.9,0,13.8-0.1l24.6,44.8l3.4,6.6
	c0.4-6.5,0.9-15.5,1.3-27.2c0.5-11.7,0.7-19.7,0.7-24.2c4.7,0.1,8.5,0.1,11.4,0.1c1.3,0,5.1,0,11.3-0.1l-1.4,17.2l-2.6,47.8
	l-0.4,13.8c-5-0.1-9.7-0.1-14-0.1c-3.6,0-8.6,0-15,0.1c-2-3.8-3.5-6.5-4.4-8.2L401.5,95c-3.2-5.4-6.1-10.5-8.8-15.5
	c-1.8-3.1-3.6-6.5-5.5-10.3l-1.2,27.4l-0.6,23c-4.8-0.1-8.4-0.1-10.9-0.1C372.4,119.6,368.4,119.6,362.6,119.7z"/>
</svg>
